<?xml version="1.0" encoding="UTF-8"?>
<svg id="Layer_2" data-name="Layer 2" xmlns="http://www.w3.org/2000/svg" viewBox="0 0 397.55 397.55">
  <defs>
    <style>
      .cls-1 {
        fill: #008ee6;
      }

      .cls-1, .cls-2 {
        stroke-width: 0px;
      }

      .cls-2 {
        fill: none;
      }
    </style>
  </defs>
  <g id="Capa_1" data-name="Capa 1">
    <g>
      <path class="cls-1" d="M307.14,146.74c-31.31-1.79-60.91,13.33-77.91,39.12,1.02-3.85,2.17,2.45,3.44-1.33.87-2.6,2.84-4.79,5.56-6.17,30.95-15.71,49.66-48.24,47.68-82.88-2.54-44.24-39.23-80.3-83.53-82.08-24.01-.97-46.76,7.64-64.05,24.25-17.3,16.61-26.82,38.97-26.82,62.95,0,33.05,18.37,62.87,47.93,77.82,2.64,1.34,4.57,3.48,5.42,6.04,1.28,3.81,2.43-2.47,3.46,1.41-17-25.78-46.62-40.91-77.91-39.12-44.24,2.54-80.3,39.23-82.08,83.53-.97,24.01,7.65,46.76,24.25,64.04,16.61,17.3,38.97,26.82,62.95,26.82,29.67,0,56.79-14.84,72.83-39.3-7.98,30.11-23.45,58.13-45,80.98-3.48,3.69-4.43,9.09-2.42,13.75s6.59,7.67,11.66,7.67h132.36c5.07,0,9.65-3.01,11.66-7.67s1.06-10.06-2.42-13.75c-21.55-22.86-37.01-50.88-45-80.98,16.04,24.46,43.16,39.3,72.83,39.3,23.98,0,46.33-9.53,62.95-26.82,16.61-17.29,25.22-40.03,24.25-64.04-1.78-44.3-37.84-80.99-82.08-83.53Z"/>
      <rect class="cls-2" width="397.55" height="397.55"/>
    </g>
  </g>
</svg>