<?xml version="1.0" encoding="UTF-8"?>
<svg id="Layer_2" data-name="Layer 2" xmlns="http://www.w3.org/2000/svg" viewBox="0 0 397.55 397.55">
  <defs>
    <style>
      .cls-1 {
        fill: #e18f01;
      }

      .cls-1, .cls-2 {
        stroke-width: 0px;
      }

      .cls-2 {
        fill: none;
      }
    </style>
  </defs>
  <g id="Capa_1" data-name="Capa 1">
    <g>
      <rect class="cls-2" width="397.55" height="397.55"/>
      <path class="cls-1" d="M13.49,209.05c57.76,42.01,133,117.25,175.01,175.01,2.39,3.29,6.21,5.23,10.27,5.23s7.88-1.94,10.27-5.23c42.01-57.76,117.25-133,175.01-175.01,3.29-2.39,5.23-6.21,5.23-10.27s-1.94-7.88-5.23-10.27c-57.76-42.01-133-117.25-175.01-175.01-2.39-3.29-6.21-5.23-10.27-5.23s-7.88,1.94-10.27,5.23C146.49,71.26,71.26,146.49,13.49,188.5c-3.29,2.39-5.23,6.21-5.23,10.27s1.94,7.88,5.23,10.27Z"/>
    </g>
  </g>
</svg>