<?xml version="1.0" encoding="UTF-8"?>
<svg id="Layer_2" data-name="Layer 2" xmlns="http://www.w3.org/2000/svg" viewBox="0 0 397.55 397.55">
  <defs>
    <style>
      .cls-1 {
        fill: none;
      }

      .cls-1, .cls-2 {
        stroke-width: 0px;
      }

      .cls-2 {
        fill: #e42c20;
      }
    </style>
  </defs>
  <g id="Capa_1" data-name="Capa 1">
    <g>
      <path class="cls-2" d="M279.01,20.96c-30.62,0-59.57,13.28-80.23,36.2-20.66-22.92-49.61-36.2-80.23-36.2-60.72,0-110.12,51.48-110.12,114.77,0,54.69,31.24,111.72,92.84,169.5,44.92,42.13,89.19,68.49,91.05,69.59,1.99,1.18,4.23,1.77,6.46,1.77s4.47-.59,6.46-1.77c1.86-1.1,46.13-27.46,91.05-69.59,61.61-57.77,92.84-114.8,92.84-169.5,0-63.29-49.4-114.77-110.13-114.77Z"/>
      <rect class="cls-1" width="397.55" height="397.55"/>
    </g>
  </g>
</svg>