<?xml version="1.0" encoding="UTF-8"?>
<svg id="Layer_2" data-name="Layer 2" xmlns="http://www.w3.org/2000/svg" viewBox="0 0 397.55 397.55">
  <defs>
    <style>
      .cls-1 {
        fill: #405356;
      }

      .cls-1, .cls-2 {
        stroke-width: 0px;
      }

      .cls-2 {
        fill: none;
      }
    </style>
  </defs>
  <g id="Capa_1" data-name="Capa 1">
    <g>
      <path class="cls-1" d="M205,3.54c-3.87-2.17-8.58-2.17-12.45,0C185.29,7.63,14.63,104.96,14.63,223.94c0,58.64,47.87,106.35,106.72,106.35,11.85,0,23.37-1.89,34.27-5.58-8.65,18.11-20.08,34.89-33.83,49.53-3.47,3.69-4.41,9.09-2.39,13.74s6.59,7.65,11.65,7.65h136.44c5.06,0,9.64-3.01,11.65-7.65,2.01-4.65,1.07-10.04-2.39-13.74-13.65-14.54-25.02-31.2-33.65-49.17,10.57,3.45,21.7,5.22,33.11,5.22,58.84,0,106.72-47.71,106.72-106.35,0-118.99-170.65-216.31-177.92-220.4Z"/>
      <rect class="cls-2" width="397.55" height="397.55"/>
    </g>
  </g>
</svg>